<svg t="1748773489971" class="icon" viewBox="0 0 1024 1024" version="1.1"
    xmlns="http://www.w3.org/2000/svg" p-id="4633" width="200" height="200">
    <path
        d="M753.604225 226.324977l-182.564024 0 0 174.39889-113.265066 0 0-174.39889-187.37936 0c-24.28604 0-43.966107 19.680067-43.966107 43.966107l0 483.20845c0 24.28604 19.680067 43.966107 43.966107 43.966107l483.20845 0c24.28604 0 43.966107-19.680067 43.966107-43.966107l0-482.999087C797.779694 246.214406 777.890265 226.324977 753.604225 226.324977z"
        p-id="4634" fill="#ffffff"></path>
    <path
        d="M507.394027 938.785269l-118.080401-68.252147c-6.07151-3.559161-13.817919 0.83745-13.817919 7.955772l0 37.26651-174.817615 0c-47.315905 0-85.629227-38.313322-85.629227-85.629227l0-318.021506-61.971274 0 0 318.021506c0 81.441979 65.94916 147.391139 147.391139 147.391139l174.817615 0 0 37.26651c0 7.118322 7.746409 11.514933 13.817919 7.955772l118.080401-68.252147C513.465537 951.137651 513.465537 942.34443 507.394027 938.785269z"
        p-id="4635" fill="#ffffff"></path>
    <path
        d="M823.531271 46.692026l-174.817615 0 0-37.475872c0-7.118322-7.746409-11.514933-13.817919-7.955772l-118.080401 68.252147c-6.07151 3.559161-6.07151 12.352382 0 15.911543l118.080401 68.252147c6.07151 3.559161 13.817919-0.83745 13.817919-7.955772l0-37.475872 174.817615 0c47.315905 0 85.629227 38.522684 85.629227 85.629227l0 318.230868 61.761912 0 0-318.021506C970.92241 112.641186 904.763887 46.692026 823.531271 46.692026z"
        p-id="4636" fill="#ffffff"></path>
</svg>